<svg xmlns="http://www.w3.org/2000/svg" version="1.1" xmlns:xlink="http://www.w3.org/1999/xlink" xmlns:svgjs="http://svgjs.dev/svgjs" width="1000" height="1000" viewBox="0 0 1000 1000"><rect width="1000" height="1000" fill="#000000"></rect><g transform="matrix(0.7,0,0,0.7,149.84897959183667,150.19913061224486)"><svg viewBox="0 0 343 343" data-background-color="#ffffff" preserveAspectRatio="xMidYMid meet" height="999" width="1000" xmlns="http://www.w3.org/2000/svg" xmlns:xlink="http://www.w3.org/1999/xlink"><g id="tight-bounds" transform="matrix(1,0,0,1,0.0740000000000407,0.07400000000001228)"><svg viewBox="0 0 342.85155851775386 342.85155851775386" height="342.85155851775386" width="342.85155851775386"><g><svg></svg></g><g><svg viewBox="0 0 342.85155851775386 342.85155851775386" height="342.85155851775386" width="342.85155851775386"><g><path d="M0 171.426c0-94.676 76.75-171.426 171.426-171.426 94.676 0 171.426 76.75 171.426 171.426 0 94.676-76.75 171.426-171.426 171.426-94.676 0-171.426-76.75-171.426-171.426zM171.426 340.003c93.102 0 168.577-75.474 168.577-168.577 0-93.102-75.474-168.577-168.577-168.577-93.102 0-168.577 75.474-168.577 168.577 0 93.102 75.474 168.577 168.577 168.577z" data-fill-palette-color="tertiary" fill="#000000" stroke="transparent"></path><ellipse rx="164.56874808852186" ry="164.56874808852186" cx="171.42577925887693" cy="171.42577925887693" fill="#000000" stroke="transparent" stroke-width="0" fill-opacity="1" data-fill-palette-color="tertiary"></ellipse></g><g transform="matrix(1,0,0,1,64.84655864529837,130.07270334144513)"><svg viewBox="0 0 213.1584412271571 82.70615183486359" height="82.70615183486359" width="213.1584412271571"><g><svg viewBox="0 0 213.1584412271571 82.70615183486359" height="82.70615183486359" width="213.1584412271571"><g><svg viewBox="0 0 213.1584412271571 82.70615183486359" height="82.70615183486359" width="213.1584412271571"><g transform="matrix(1,0,0,1,0,51.11571984019896)"><svg viewBox="0 0 213.1584412271571 31.590431994664627" height="31.590431994664627" width="213.1584412271571"><g><svg viewBox="0 0 213.1584412271571 31.590431994664627" height="31.590431994664627" width="213.1584412271571"><g><svg viewBox="0 0 213.1584412271571 31.590431994664627" height="31.590431994664627" width="213.1584412271571"><g transform="matrix(1,0,0,1,0,0)"><svg width="213.1584412271571" viewBox="2.700000047683716 -37.75 346.1199951171875 51.29999923706055" height="31.590431994664627" data-palette-color="#ffffff"><path d="M24.8-24.2L22.5-24.2Q22.25-26.75 21.2-28.8 20.15-30.85 18.3-32.08 16.45-33.3 13.7-33.25L13.7-33.25Q10.9-33.25 9.25-31.7 7.6-30.15 7.6-27.95L7.6-27.95Q7.6-26 8.7-24.68 9.8-23.35 11.68-22.3 13.55-21.25 15.9-20.2L15.9-20.2Q17.8-19.4 19.75-18.4 21.7-17.4 23.3-16.13 24.9-14.85 25.85-13.08 26.8-11.3 26.8-8.9L26.8-8.9Q26.8-6.1 25.35-3.9 23.9-1.7 21.23-0.45 18.55 0.8 14.75 0.8L14.75 0.8Q12.6 0.8 10.23 0.15 7.85-0.5 5.9-1.7L5.9-1.7 6.15 0.4 3.1 0.4 2.9-10.6 5.3-10.6Q5.7-6.25 8.43-4.03 11.15-1.8 14.95-1.8L14.95-1.8Q16.85-1.8 18.4-2.5 19.95-3.2 20.85-4.5 21.75-5.8 21.75-7.55L21.75-7.55Q21.75-9.6 20.53-11 19.3-12.4 17.43-13.4 15.55-14.4 13.5-15.3L13.5-15.3Q11.45-16.2 9.53-17.2 7.6-18.2 6.05-19.5 4.5-20.8 3.6-22.58 2.7-24.35 2.7-26.75L2.7-26.75Q2.7-28.15 3.2-29.7 3.7-31.25 4.9-32.65 6.1-34.05 8.18-34.93 10.25-35.8 13.4-35.8L13.4-35.8Q15.3-35.8 17.68-35.25 20.05-34.7 22-33.3L22-33.3 21.8-35.4 24.8-35.4 24.8-24.2ZM46.55 0L46.55-2.1Q48.05-2.1 48.67-2.8 49.3-3.5 49.42-4.75 49.55-6 49.55-7.65L49.55-7.65 49.5-14.65Q49.5-18.6 48.27-20.58 47.05-22.55 44.35-22.5L44.35-22.5Q42.7-22.45 41.12-21.7 39.55-20.95 38.5-19.8L38.5-19.8 38.5-6.2Q38.5-5.3 38.45-4.38 38.4-3.45 38.3-2.5L38.3-2.5Q39.1-2.55 39.92-2.58 40.75-2.6 41.45-2.65L41.45-2.65 41.45 0 30.3 0 30.3-2.1Q31.8-2.1 32.4-2.8 33-3.5 33.15-4.75 33.3-6 33.3-7.65L33.3-7.65 33.3-30.25Q33.3-31.1 33.32-31.98 33.35-32.85 33.45-33.85L33.45-33.85Q32.6-33.8 31.65-33.77 30.7-33.75 29.9-33.7L29.9-33.7 29.9-36.35Q32.15-36.35 33.5-36.58 34.85-36.8 35.57-37.1 36.3-37.4 36.65-37.75L36.65-37.75 38.5-37.75 38.5-22.65Q39.6-23.55 40.95-24.25 42.3-24.95 43.72-25.38 45.15-25.8 46.4-25.8L46.4-25.8Q50.85-25.8 52.77-23.1 54.7-20.4 54.75-14.65L54.75-14.65 54.75-6.2Q54.75-5.3 54.72-4.38 54.7-3.45 54.55-2.5L54.55-2.5Q55.35-2.55 56.2-2.58 57.05-2.6 57.75-2.65L57.75-2.65 57.75 0 46.55 0ZM83.9 0L75.95 0Q75.84-0.8 75.8-1.4 75.75-2 75.65-2.65L75.65-2.65Q73.95-0.95 72-0.08 70.05 0.8 67.95 0.8L67.95 0.8Q64.34 0.8 62.52-0.98 60.7-2.75 60.7-5.4L60.7-5.4Q60.7-7.7 62.05-9.4 63.4-11.1 65.59-12.18 67.8-13.25 70.4-13.78 73-14.3 75.5-14.3L75.5-14.3 75.5-17.25Q75.5-18.85 75.2-20.23 74.9-21.6 73.97-22.48 73.05-23.35 71.09-23.35L71.09-23.35Q69.8-23.4 68.5-22.88 67.2-22.35 66.5-21.15L66.5-21.15Q66.89-20.75 67.02-20.23 67.14-19.7 67.14-19.25L67.14-19.25Q67.14-18.55 66.55-17.68 65.95-16.8 64.5-16.85L64.5-16.85Q63.3-16.85 62.67-17.68 62.05-18.5 62.05-19.6L62.05-19.6Q62.05-21.4 63.37-22.8 64.7-24.2 67-25 69.3-25.8 72.15-25.8L72.15-25.8Q76.45-25.8 78.57-23.55 80.7-21.3 80.7-16.45L80.7-16.45Q80.7-14.65 80.7-13 80.7-11.35 80.67-9.7 80.65-8.05 80.65-6.2L80.65-6.2Q80.65-5.45 80.59-4.5 80.55-3.55 80.45-2.5L80.45-2.5Q81.3-2.55 82.2-2.6 83.09-2.65 83.9-2.65L83.9-2.65 83.9 0ZM75.5-12L75.5-12Q73.9-11.9 72.22-11.55 70.55-11.2 69.2-10.5 67.84-9.8 67.02-8.7 66.2-7.6 66.2-6.05L66.2-6.05Q66.3-4.35 67.32-3.55 68.34-2.75 69.75-2.75L69.75-2.75Q71.5-2.75 72.84-3.43 74.2-4.1 75.5-5.3L75.5-5.3Q75.45-5.85 75.45-6.43 75.45-7 75.45-7.65L75.45-7.65Q75.45-8.1 75.47-9.33 75.5-10.55 75.5-12ZM87.14 0L87.14-2.1Q88.64-2.1 89.24-2.8 89.84-3.5 89.97-4.75 90.09-6 90.09-7.65L90.09-7.65 90.09-18.05Q90.09-18.85 90.12-19.78 90.14-20.7 90.29-21.6L90.29-21.6Q89.44-21.55 88.49-21.53 87.54-21.5 86.74-21.45L86.74-21.45 86.74-24.1 88.44-24.1Q90.54-24.1 91.64-24.55 92.74-25 93.24-25.5L93.24-25.5 95.04-25.5Q95.14-24.8 95.19-23.55 95.24-22.3 95.29-20.75L95.29-20.75Q96.24-22.15 97.49-23.28 98.74-24.4 100.22-25.1 101.69-25.8 103.29-25.8L103.29-25.8Q104.84-25.8 105.97-24.98 107.09-24.15 107.09-22.3L107.09-22.3Q107.09-21.8 106.82-21.15 106.54-20.5 105.92-20.03 105.29-19.55 104.24-19.55L104.24-19.55Q103.19-19.6 102.42-20.35 101.64-21.1 101.69-22.4L101.69-22.4Q100.49-22.4 99.29-21.68 98.09-20.95 97.07-19.75 96.04-18.55 95.34-17.15L95.34-17.15 95.34-6.2Q95.34-5.3 95.32-4.38 95.29-3.45 95.14-2.5L95.14-2.5Q95.94-2.55 96.79-2.58 97.64-2.6 98.34-2.65L98.34-2.65 98.34 0 87.14 0ZM121.24 0.8L121.24 0.8Q117.74 0.8 114.97-0.83 112.19-2.45 110.59-5.43 108.99-8.4 108.99-12.45L108.99-12.45Q108.99-15.95 110.57-19 112.14-22.05 114.99-23.93 117.84-25.8 121.59-25.8L121.59-25.8Q123.69-25.8 125.57-25.15 127.44-24.5 128.92-23.13 130.39-21.75 131.24-19.58 132.09-17.4 132.09-14.3L132.09-14.3 114.89-14Q114.89-10.6 115.67-7.95 116.44-5.3 118.19-3.85 119.94-2.4 122.74-2.4L122.74-2.4Q124.09-2.4 125.62-2.88 127.14-3.35 128.52-4.25 129.89-5.15 130.84-6.4L130.84-6.4 132.39-5.05Q130.89-2.8 128.94-1.53 126.99-0.25 124.97 0.28 122.94 0.8 121.24 0.8ZM115.09-16.6L115.09-16.6 126.64-16.6Q126.64-18.5 126.12-20.03 125.59-21.55 124.49-22.45 123.39-23.35 121.69-23.35L121.69-23.35Q119.04-23.35 117.34-21.68 115.64-20 115.09-16.6ZM146.49 0.8L146.49 0.8Q143.44 0.8 141.06-0.73 138.69-2.25 137.31-5.1 135.94-7.95 135.94-11.8L135.94-11.8Q135.94-15.9 137.54-19.05 139.14-22.2 142.04-24 144.94-25.8 148.64-25.8L148.64-25.8Q150.19-25.8 151.61-25.43 153.04-25.05 153.99-24.55L153.99-24.55 153.99-30.25Q153.99-31 154.04-31.93 154.09-32.85 154.19-33.85L154.19-33.85Q153.29-33.8 152.34-33.75 151.39-33.7 150.64-33.7L150.64-33.7 150.64-36.35Q152.89-36.35 154.21-36.58 155.54-36.8 156.26-37.1 156.99-37.4 157.34-37.75L157.34-37.75 159.19-37.75 159.19-6.2Q159.19-5.45 159.14-4.5 159.09-3.55 158.99-2.5L158.99-2.5Q159.89-2.55 160.79-2.6 161.69-2.65 162.44-2.65L162.44-2.65 162.44 0 154.49 0Q154.39-0.7 154.31-1.3 154.24-1.9 154.19-2.5L154.19-2.5Q152.69-0.9 150.74-0.05 148.79 0.8 146.49 0.8ZM148.54-2.35L148.54-2.35Q150.09-2.35 151.56-3.2 153.04-4.05 153.99-5.35L153.99-5.35Q153.99-6 153.99-6.7 153.99-7.4 153.99-8.2L153.99-8.2 153.99-21.8Q153.04-22.5 151.76-22.88 150.49-23.25 149.14-23.25L149.14-23.25Q146.69-23.25 145.01-21.83 143.34-20.4 142.54-17.95 141.74-15.5 141.79-12.35L141.79-12.35Q141.89-9.65 142.64-7.35 143.39-5.05 144.86-3.7 146.34-2.35 148.54-2.35ZM205.08 0L179.63 0 179.63-2.2Q181.28-2.3 182.01-2.9 182.73-3.5 182.93-4.7 183.13-5.9 183.13-7.75L183.13-7.75 183.13-28.55Q183.13-29.65 183.18-30.68 183.23-31.7 183.28-32.45L183.28-32.45Q182.43-32.4 181.43-32.35 180.43-32.3 179.63-32.25L179.63-32.25 179.63-35 191.93-35 191.93-32.8Q190.33-32.75 189.58-32.13 188.83-31.5 188.63-30.33 188.43-29.15 188.43-27.25L188.43-27.25 188.43-6.55Q188.43-5.2 188.41-4.17 188.38-3.15 188.28-2.5L188.28-2.5 196.73-2.6Q199.83-2.65 201.48-4.63 203.13-6.6 203.13-10.9L203.13-10.9 205.38-10.9 205.08 0ZM208.48 0L208.48-2.1Q209.98-2.1 210.58-2.8 211.18-3.5 211.31-4.75 211.43-6 211.43-7.65L211.43-7.65 211.43-18Q211.43-18.85 211.48-19.73 211.53-20.6 211.63-21.6L211.63-21.6Q210.78-21.55 209.83-21.53 208.88-21.5 208.08-21.45L208.08-21.45 208.08-24.1Q210.33-24.1 211.66-24.33 212.98-24.55 213.71-24.85 214.43-25.15 214.78-25.5L214.78-25.5 216.68-25.5 216.68-6.2Q216.68-5.3 216.63-4.38 216.58-3.45 216.48-2.5L216.48-2.5Q217.28-2.55 218.11-2.58 218.93-2.6 219.63-2.65L219.63-2.65 219.63 0 208.48 0ZM213.83-30.1L213.83-30.1Q212.53-30.1 211.63-31.08 210.73-32.05 210.73-33.45L210.73-33.45Q210.73-34.85 211.68-35.83 212.63-36.8 213.83-36.8L213.83-36.8Q215.13-36.8 216.01-35.83 216.88-34.85 216.88-33.45L216.88-33.45Q216.88-32.05 216.01-31.08 215.13-30.1 213.83-30.1ZM225.43 0L225.53-30.25Q225.53-31.1 225.55-31.98 225.58-32.85 225.68-33.85L225.68-33.85Q224.78-33.8 223.85-33.77 222.93-33.75 222.13-33.7L222.13-33.7 222.13-36.35Q224.38-36.35 225.73-36.58 227.08-36.8 227.8-37.1 228.53-37.4 228.88-37.75L228.88-37.75 230.73-37.75 230.73-22.95Q232.23-24.35 234.1-25.08 235.98-25.8 238.03-25.8L238.03-25.8Q241.13-25.8 243.6-24.25 246.08-22.7 247.5-19.85 248.93-17 248.93-13.1L248.93-13.1Q248.93-8.95 247.2-5.8 245.48-2.65 242.63-0.93 239.78 0.8 236.23 0.8L236.23 0.8Q234.63 0.8 232.6 0.2 230.58-0.4 228.93-2.25L228.93-2.25 227.63 0 225.43 0ZM230.73-20.05L230.73-7.75Q230.73-5.4 231.48-4.13 232.23-2.85 233.4-2.33 234.58-1.8 235.88-1.8L235.88-1.8Q238.23-1.75 239.83-3.1 241.43-4.45 242.25-6.78 243.08-9.1 243.08-12.05L243.08-12.05Q243.08-15.05 242.33-17.45 241.58-19.85 240.03-21.28 238.48-22.7 236.13-22.65L236.13-22.65Q234.58-22.65 233.15-21.95 231.73-21.25 230.73-20.05L230.73-20.05ZM253.03 0L253.03-2.1Q254.53-2.1 255.13-2.8 255.73-3.5 255.85-4.75 255.98-6 255.98-7.65L255.98-7.65 255.98-18.05Q255.98-18.85 256-19.78 256.03-20.7 256.18-21.6L256.18-21.6Q255.33-21.55 254.38-21.53 253.43-21.5 252.63-21.45L252.63-21.45 252.63-24.1 254.33-24.1Q256.43-24.1 257.53-24.55 258.63-25 259.13-25.5L259.13-25.5 260.93-25.5Q261.03-24.8 261.08-23.55 261.13-22.3 261.18-20.75L261.18-20.75Q262.13-22.15 263.38-23.28 264.63-24.4 266.1-25.1 267.58-25.8 269.18-25.8L269.18-25.8Q270.73-25.8 271.85-24.98 272.98-24.15 272.98-22.3L272.98-22.3Q272.98-21.8 272.7-21.15 272.43-20.5 271.8-20.03 271.18-19.55 270.13-19.55L270.13-19.55Q269.08-19.6 268.3-20.35 267.53-21.1 267.58-22.4L267.58-22.4Q266.38-22.4 265.18-21.68 263.98-20.95 262.95-19.75 261.93-18.55 261.23-17.15L261.23-17.15 261.23-6.2Q261.23-5.3 261.2-4.38 261.18-3.45 261.03-2.5L261.03-2.5Q261.83-2.55 262.68-2.58 263.53-2.6 264.23-2.65L264.23-2.65 264.23 0 253.03 0ZM297.87 0L289.92 0Q289.82-0.8 289.77-1.4 289.72-2 289.62-2.65L289.62-2.65Q287.92-0.95 285.97-0.08 284.02 0.8 281.92 0.8L281.92 0.8Q278.32 0.8 276.5-0.98 274.67-2.75 274.67-5.4L274.67-5.4Q274.67-7.7 276.02-9.4 277.37-11.1 279.57-12.18 281.77-13.25 284.37-13.78 286.97-14.3 289.47-14.3L289.47-14.3 289.47-17.25Q289.47-18.85 289.17-20.23 288.87-21.6 287.95-22.48 287.02-23.35 285.07-23.35L285.07-23.35Q283.77-23.4 282.47-22.88 281.17-22.35 280.47-21.15L280.47-21.15Q280.87-20.75 281-20.23 281.12-19.7 281.12-19.25L281.12-19.25Q281.12-18.55 280.52-17.68 279.92-16.8 278.47-16.85L278.47-16.85Q277.27-16.85 276.65-17.68 276.02-18.5 276.02-19.6L276.02-19.6Q276.02-21.4 277.35-22.8 278.67-24.2 280.97-25 283.27-25.8 286.12-25.8L286.12-25.8Q290.42-25.8 292.55-23.55 294.67-21.3 294.67-16.45L294.67-16.45Q294.67-14.65 294.67-13 294.67-11.35 294.65-9.7 294.62-8.05 294.62-6.2L294.62-6.2Q294.62-5.45 294.57-4.5 294.52-3.55 294.42-2.5L294.42-2.5Q295.27-2.55 296.17-2.6 297.07-2.65 297.87-2.65L297.87-2.65 297.87 0ZM289.47-12L289.47-12Q287.87-11.9 286.2-11.55 284.52-11.2 283.17-10.5 281.82-9.8 281-8.7 280.17-7.6 280.17-6.05L280.17-6.05Q280.27-4.35 281.3-3.55 282.32-2.75 283.72-2.75L283.72-2.75Q285.47-2.75 286.82-3.43 288.17-4.1 289.47-5.3L289.47-5.3Q289.42-5.85 289.42-6.43 289.42-7 289.42-7.65L289.42-7.65Q289.42-8.1 289.45-9.33 289.47-10.55 289.47-12ZM301.12 0L301.12-2.1Q302.62-2.1 303.22-2.8 303.82-3.5 303.95-4.75 304.07-6 304.07-7.65L304.07-7.65 304.07-18.05Q304.07-18.85 304.1-19.78 304.12-20.7 304.27-21.6L304.27-21.6Q303.42-21.55 302.47-21.53 301.52-21.5 300.72-21.45L300.72-21.45 300.72-24.1 302.42-24.1Q304.52-24.1 305.62-24.55 306.72-25 307.22-25.5L307.22-25.5 309.02-25.5Q309.12-24.8 309.17-23.55 309.22-22.3 309.27-20.75L309.27-20.75Q310.22-22.15 311.47-23.28 312.72-24.4 314.2-25.1 315.67-25.8 317.27-25.8L317.27-25.8Q318.82-25.8 319.95-24.98 321.07-24.15 321.07-22.3L321.07-22.3Q321.07-21.8 320.8-21.15 320.52-20.5 319.9-20.03 319.27-19.55 318.22-19.55L318.22-19.55Q317.17-19.6 316.4-20.35 315.62-21.1 315.67-22.4L315.67-22.4Q314.47-22.4 313.27-21.68 312.07-20.95 311.05-19.75 310.02-18.55 309.32-17.15L309.32-17.15 309.32-6.2Q309.32-5.3 309.3-4.38 309.27-3.45 309.12-2.5L309.12-2.5Q309.92-2.55 310.77-2.58 311.62-2.6 312.32-2.65L312.32-2.65 312.32 0 301.12 0ZM328.72 13.55L328.72 13.55Q327.07 13.55 325.89 12.68 324.72 11.8 324.72 10.15L324.72 10.15Q324.72 9.1 325.39 8.25 326.07 7.4 327.17 7.4L327.17 7.4Q328.37 7.35 328.89 8.15 329.42 8.95 329.42 9.8L329.42 9.8Q329.42 9.95 329.42 10.1 329.42 10.25 329.37 10.45L329.37 10.45Q329.52 10.55 329.82 10.5L329.82 10.5Q330.37 10.45 331.02 9.9 331.67 9.35 332.22 8.35L332.22 8.35Q332.82 7.25 333.57 5.3 334.32 3.35 335.22 0.8L335.22 0.8 327.37-15.6Q326.02-18.4 325.49-19.98 324.97-21.55 324.82-22.45L324.82-22.45 322.42-22.35 322.42-25 333.47-25 333.47-22.95 333.37-22.95Q331.32-22.75 331.14-21.4 330.97-20.05 332.07-17.7L332.07-17.7 337.57-5.6Q338.52-8.15 339.49-11.15 340.47-14.15 341.52-17.3L341.52-17.3Q341.87-18.25 342.24-19.33 342.62-20.4 343.04-21.3 343.47-22.2 343.87-22.55L343.87-22.55 340.62-22.35 340.62-25 348.82-25 348.82-22.95Q347.07-22.35 346.09-20.75 345.12-19.15 344.22-16.7L344.22-16.7 337.97 0.9Q336.52 5.05 335.27 7.88 334.02 10.7 332.49 12.13 330.97 13.55 328.72 13.55Z" opacity="1" transform="matrix(1,0,0,1,0,0)" fill="#ffffff" class="undefined-text-0" data-fill-palette-color="quaternary" id="text-0"></path></svg></g></svg></g></svg></g></svg></g><g transform="matrix(1,0,0,1,80.07234715753351,0)"><svg viewBox="0 0 53.01374691209009 43.65797701662652" height="43.65797701662652" width="53.01374691209009"><g><svg version="1.1" xmlns="http://www.w3.org/2000/svg" xmlns:xlink="http://www.w3.org/1999/xlink" x="0" y="0" viewBox="0 0 100.0009994506836 82.3530044555664" enable-background="new 0 0 100 82.353" xml:space="preserve" width="53.01374691209009" height="43.65797701662652" class="icon-icon-0" data-fill-palette-color="quaternary" id="icon-0"><path d="M0 0v58.824C17.647 76.472 41.177 70.59 41.177 82.353h5.882V29.412C47.059 11.765 17.647 11.765 0 0L0 0z" fill="#ffffff" data-fill-palette-color="quaternary"></path><path d="M100 0C82.353 11.765 52.943 11.765 52.943 29.412v52.941h5.882c0-11.763 23.528-5.881 41.176-23.528V0z" fill="#ffffff" data-fill-palette-color="quaternary"></path></svg></g></svg></g><g></g></svg></g></svg></g></svg></g></svg></g><defs></defs></svg><rect width="342.85155851775386" height="342.85155851775386" fill="none" stroke="none" visibility="hidden"></rect></g></svg></g></svg>